# xmcd
#
# Track frame offsets:
#	150
#	13499
#	29211
#	42964
#	56843
#	67214
#	79979
#	91156
#	116425
#	132509
#	148125
#	164964
#	178382
#	196845
#	211677
#	232620
#	249382
#	266021
#	286296
#	309993
#
# Disc length: 4304 seconds
#
# Revision: 1
# Processed by: cddbd v1.5PL3 Copyright (c) Steve Scherf et al.
# Submitted via: audiograbber 1.82.01
#
DISCID=3410ce14
DTITLE=Stevie Ray Vaughan and Double Trouble - In 1978 There Was...
DYEAR=1979
DGENRE=Blues
TTITLE0=You Can Have My Husband
TTITLE1=Rude Mood
TTITLE2=Pride and Joy
TTITLE3=Oh, Yeah
TTITLE4=Love Struck Baby
TTITLE5=Ti-Ni-Nee-Ni-Nu
TTITLE6=Gonna Miss Me
TTITLE7=I Wonder Why
TTITLE8=I'm Crying
TTITLE9=Sugar Coated Loving
TTITLE10=Natural Born Lover
TTITLE11=Ti-Ni-Nee-Ni-Nu
TTITLE12=Scratch My Back
TTITLE13=I'll Change
TTITLE14=Shake a Hand, Shake a Hand
TTITLE15=Oh Baby
TTITLE16=Sugar Coated Love
TTITLE17=Love in Vain
TTITLE18=You Can't Have My Husband
TTITLE19=My Baby's Gone
EXTD=
EXTT0=
EXTT1=
EXTT2=
EXTT3=
EXTT4=
EXTT5=
EXTT6=
EXTT7=
EXTT8=
EXTT9=
EXTT10=
EXTT11=
EXTT12=
EXTT13=
EXTT14=
EXTT15=
EXTT16=
EXTT17=
EXTT18=
EXTT19=
PLAYORDER=
